<svg class="svg-icon" style="width: 1em;height: 1em;vertical-align: middle;fill: currentColor;overflow: hidden;" viewBox="0 0 1024 1024" version="1.1" xmlns="http://www.w3.org/2000/svg"><path d="M426.666667 426.666667h170.666666v85.333333h-170.666666zM331.818667 725.333333l-80 128h520.362666l-80-128z"  /><path d="M917.333333 170.666667h-810.666666A106.794667 106.794667 0 0 0 0 277.333333v469.333334C0 805.461333 47.829333 853.333333 106.666667 853.333333h94.848l100.394666-160.64A21.333333 21.333333 0 0 1 320 682.666667h384a21.333333 21.333333 0 0 1 18.090667 10.026666L822.485333 853.333333H917.333333c58.837333 0 106.666667-47.872 106.666667-106.666666v-469.333334C1024 218.538667 976.170667 170.666667 917.333333 170.666667zM810.666667 554.666667c-47.061333 0-85.333333-38.272-85.333334-85.333334s38.272-85.333333 85.333334-85.333333 85.333333 38.272 85.333333 85.333333-38.272 85.333333-85.333333 85.333334zM213.333333 554.666667c-47.061333 0-85.333333-38.272-85.333333-85.333334s38.272-85.333333 85.333333-85.333333 85.333333 38.272 85.333334 85.333333-38.272 85.333333-85.333334 85.333334zM91.306667 262.4c8.533333-8.533333 22.613333-8.106667 30.293333-0.426667 4.266667 4.693333 6.4 9.813333 6.4 15.36 0 5.546667-2.133333 11.093333-6.4 14.933334-3.84 4.266667-9.386667 6.4-14.933333 6.4s-11.093333-2.133333-14.976-6.4A20.138667 20.138667 0 0 1 85.333333 277.333333c0-5.546667 2.133333-10.666667 5.973334-14.933333z m30.677333 499.2a21.504 21.504 0 0 1-30.293333 0.426667A22.528 22.528 0 0 1 85.333333 746.666667a21.376 21.376 0 0 1 36.224-14.933334c4.309333 3.84 6.442667 9.386667 6.442667 14.933334 0 5.546667-2.133333 10.666667-6.016 14.933333zM640 533.333333a21.333333 21.333333 0 0 1-21.333333 21.333334h-213.333334a21.333333 21.333333 0 0 1-21.333333-21.333334v-128a21.333333 21.333333 0 0 1 21.333333-21.333333h213.333334a21.333333 21.333333 0 0 1 21.333333 21.333333v128z m292.266667 228.266667c-3.84 4.266667-9.386667 6.4-14.933334 6.4s-11.093333-2.133333-15.36-6.4a21.333333 21.333333 0 0 1-5.973333-14.933333c0-5.546667 2.133333-10.666667 5.973333-14.933334 8.106667-8.106667 22.613333-8.106667 30.293334 0 4.266667 3.84 6.4 9.386667 6.4 14.933334 0 5.546667-2.133333 11.093333-6.4 14.933333z m0-469.333333c-3.84 4.266667-9.386667 6.4-14.933334 6.4s-11.093333-2.133333-15.36-6.4A21.333333 21.333333 0 0 1 896 277.333333a21.333333 21.333333 0 0 1 5.973333-14.933333c8.106667-8.106667 22.613333-8.106667 30.293334 0 4.266667 3.84 6.4 9.386667 6.4 14.933333 0 5.546667-2.133333 11.093333-6.4 14.933334z"  /></svg>